<svg width="24" height="25" viewBox="0 0 24 25" fill="none" xmlns="http://www.w3.org/2000/svg">
<rect y="0.450684" width="24" height="24" rx="3" fill="#0B0B0B"/>
<path d="M12 3.55176C7.0275 3.55176 3 7.68382 3 12.7803C3 16.8585 5.5785 20.3169 9.15375 21.5358C9.60375 21.6227 9.76875 21.3374 9.76875 21.0921C9.76875 20.8729 9.76125 20.2923 9.7575 19.5232C7.254 20.08 6.726 18.2851 6.726 18.2851C6.3165 17.2199 5.72475 16.9354 5.72475 16.9354C4.9095 16.3632 5.78775 16.3748 5.78775 16.3748C6.6915 16.4394 7.16625 17.3253 7.16625 17.3253C7.96875 18.7365 9.273 18.3289 9.7875 18.0928C9.8685 17.496 10.1003 17.0892 10.3575 16.8585C8.35875 16.6278 6.258 15.8341 6.258 12.2981C6.258 11.2906 6.60675 10.4678 7.18425 9.82176C7.083 9.58874 6.77925 8.65051 7.263 7.37928C7.263 7.37928 8.01675 7.13165 9.738 8.3252C10.458 8.11987 11.223 8.01836 11.988 8.01374C12.753 8.01836 13.518 8.11987 14.238 8.3252C15.948 7.13165 16.7017 7.37928 16.7017 7.37928C17.1855 8.65051 16.8817 9.58874 16.7917 9.82176C17.3655 10.4678 17.7142 11.2906 17.7142 12.2981C17.7142 15.8434 15.6105 16.6239 13.608 16.8508C13.923 17.1277 14.2155 17.6937 14.2155 18.5581C14.2155 19.7932 14.2043 20.7852 14.2043 21.0852C14.2043 21.3274 14.3617 21.6158 14.823 21.5235C18.4238 20.313 21 16.8523 21 12.7803C21 7.68382 16.9702 3.55176 12 3.55176" fill="white"/>
</svg>
