<svg width="24" height="24" viewBox="0 0 24 24" fill="none" xmlns="http://www.w3.org/2000/svg">
<rect width="24" height="24" rx="3" fill="#0B0B0B"/>
<path d="M21 6.18558V18.5453C21 19.3486 20.451 19.9991 19.773 19.9991H16.9088V11.7599L12 16.123L7.09125 11.7599V20H4.227C4.06581 20 3.90619 19.9624 3.75727 19.8893C3.60836 19.8161 3.47306 19.709 3.35911 19.5739C3.24517 19.4388 3.1548 19.2784 3.09318 19.1019C3.03157 18.9255 2.9999 18.7363 3 18.5453V6.18558C3 4.38791 4.73175 3.36156 5.94525 4.44034L7.09125 5.45958L12 9.82091L16.9088 5.4578L18.0547 4.44034C19.2675 3.36245 21 4.38791 21 6.18558Z" fill="white"/>
</svg>
