<svg width="241" height="20" viewBox="0 0 241 20" fill="none" xmlns="http://www.w3.org/2000/svg">
<path d="M5.292 19L0 0.519999H6.16L8.764 14.464L11.676 0.519999H16.716L19.768 14.38L22.316 0.519999H28.252L22.96 19H16.8L15.008 11.104L14.252 6.484H14.168L13.412 11.104L11.62 19H5.292ZM29.9814 19V0.519999H44.8774V4.804H35.6934V7.8H43.0294V11.776H35.6934V14.716H45.2414V19H29.9814ZM47.5635 19V0.519999H57.3915C59.7061 0.538666 61.4141 0.967999 62.5155 1.808C63.6355 2.62933 64.1955 3.852 64.1955 5.476C64.1955 6.54 63.8688 7.45467 63.2155 8.22C62.5808 8.98533 61.5821 9.47067 60.2195 9.676V9.704C61.7315 9.89067 62.8515 10.376 63.5795 11.16C64.3075 11.944 64.6715 12.9147 64.6715 14.072C64.6715 15.6773 64.1115 16.9 62.9915 17.74C61.8901 18.58 60.2195 19 57.9795 19H47.5635ZM53.0515 15.136H56.6635C57.3915 15.136 57.9328 14.996 58.2875 14.716C58.6421 14.4173 58.8195 13.9973 58.8195 13.456C58.8195 12.9147 58.6421 12.504 58.2875 12.224C57.9328 11.944 57.3915 11.804 56.6635 11.804H53.0515V15.136ZM53.0515 7.856H56.2435C57.6435 7.856 58.3435 7.30533 58.3435 6.204C58.3435 5.10267 57.6435 4.552 56.2435 4.552H53.0515V7.856ZM82.9537 0.519999C85.8471 0.519999 88.0497 1.32267 89.5617 2.928C91.0737 4.53333 91.8297 6.81067 91.8297 9.76C91.8297 12.6907 91.0737 14.968 89.5617 16.592C88.0497 18.1973 85.8471 19 82.9537 19H74.4697V0.519999H82.9537ZM82.2537 14.828C83.6351 14.828 84.5964 14.4173 85.1377 13.596C85.6791 12.756 85.9497 11.4773 85.9497 9.76C85.9497 8.04267 85.6791 6.77333 85.1377 5.952C84.5964 5.112 83.6351 4.692 82.2537 4.692H80.1817V14.828H82.2537ZM94.54 19V0.519999H109.436V4.804H100.252V7.8H107.588V11.776H100.252V14.716H109.8V19H94.54ZM129.93 0.519999L123.546 19H116.77L110.386 0.519999H116.35L119.318 11.132L120.27 14.744L121.166 11.188L124.162 0.519999H129.93ZM131.618 19V0.519999H146.514V4.804H137.33V7.8H144.666V11.776H137.33V14.716H146.878V19H131.618ZM154.912 14.716H163.704V19H149.2V0.519999H154.912V14.716ZM174.065 0.24C175.988 0.24 177.63 0.622666 178.993 1.388C180.374 2.13467 181.429 3.21733 182.157 4.636C182.904 6.05467 183.277 7.76267 183.277 9.76C183.277 11.7573 182.904 13.4653 182.157 14.884C181.429 16.3027 180.374 17.3947 178.993 18.16C177.63 18.9067 175.988 19.28 174.065 19.28C172.161 19.28 170.509 18.9067 169.109 18.16C167.728 17.3947 166.664 16.3027 165.917 14.884C165.17 13.4653 164.797 11.7573 164.797 9.76C164.797 7.76267 165.17 6.05467 165.917 4.636C166.664 3.21733 167.728 2.13467 169.109 1.388C170.509 0.622666 172.161 0.24 174.065 0.24ZM174.065 4.608C173.3 4.608 172.665 4.804 172.161 5.196C171.676 5.56933 171.302 6.12933 171.041 6.876C170.798 7.62267 170.677 8.584 170.677 9.76C170.677 10.9173 170.798 11.8787 171.041 12.644C171.302 13.3907 171.676 13.96 172.161 14.352C172.665 14.7253 173.3 14.912 174.065 14.912C174.812 14.912 175.437 14.7253 175.941 14.352C176.445 13.96 176.818 13.3907 177.061 12.644C177.304 11.8787 177.425 10.9173 177.425 9.76C177.425 8.584 177.304 7.62267 177.061 6.876C176.818 6.12933 176.445 5.56933 175.941 5.196C175.437 4.804 174.812 4.608 174.065 4.608ZM195.216 0.519999C196.803 0.519999 198.147 0.771999 199.248 1.276C200.368 1.76133 201.218 2.48 201.796 3.432C202.394 4.36533 202.692 5.51333 202.692 6.876C202.692 8.23867 202.394 9.396 201.796 10.348C201.218 11.2813 200.368 12 199.248 12.504C198.147 12.9893 196.803 13.232 195.216 13.232H191.744V19H186.032V0.519999H195.216ZM194.292 9.088C195.132 9.088 195.786 8.91067 196.252 8.556C196.719 8.18267 196.952 7.62267 196.952 6.876C196.952 6.12933 196.719 5.57867 196.252 5.224C195.786 4.85067 195.132 4.664 194.292 4.664H191.744V9.088H194.292ZM205.31 19V0.519999H220.206V4.804H211.022V7.8H218.358V11.776H211.022V14.716H220.57V19H205.31ZM232.356 0.519999C234.652 0.519999 236.425 1.052 237.676 2.116C238.945 3.16133 239.58 4.56133 239.58 6.316C239.58 8.276 238.964 9.76 237.732 10.768C236.5 11.776 234.726 12.28 232.412 12.28L231.852 12.588H228.492V19H222.892V0.519999H232.356ZM231.432 8.696C232.234 8.696 232.832 8.54667 233.224 8.248C233.634 7.93067 233.84 7.41733 233.84 6.708C233.84 5.99867 233.634 5.48533 233.224 5.168C232.832 4.85067 232.234 4.692 231.432 4.692H228.492V8.696H231.432ZM234.82 9.9L240.644 19H234.4L229.892 10.908L234.82 9.9Z" fill="#1B1A19"/>
</svg>
